STARTFONT 2.1
FONT -Misc-Empty-Medium-R-Normal--20-145-100-100-C-100-ISO8859-1
SIZE 20 100 100
FONTBOUNDINGBOX 10 20 0 -6
STARTPROPERTIES 24
FONTNAME_REGISTRY ""
FOUNDRY "Misc"
FAMILY_NAME "Empty"
WEIGHT_NAME "Medium"
SLANT "R"
SETWIDTH_NAME "Normal"
ADD_STYLE_NAME ""
PIXEL_SIZE 20
POINT_SIZE 145
RESOLUTION_X 100
RESOLUTION_Y 100
SPACING "C"
AVERAGE_WIDTH 100
CHARSET_REGISTRY "ISO10646"
CHARSET_ENCODING "1"
COPYRIGHT ""
CAP_HEIGHT 11
X_HEIGHT 8
FONT_VERSION "1.11"
WEIGHT 10
QUAD_WIDTH 10
DEFAULT_CHAR 0
FONT_DESCENT 6
FONT_ASCENT 14
ENDPROPERTIES
CHARS 190

STARTCHAR U+0020
ENCODING 32
SWIDTH 392 0
DWIDTH 10 0
BBX 10 20 0 -6
BITMAP
0000
0000
0000
0000
0000
0000
0000
0000
0000
0000
0000
0000
0000
0000
0000
0000
0000
0000
0000
0000
ENDCHAR

ENDFONT
